<?xml version="1.0" encoding="utf-8" ?>
<svg baseProfile="full" height="1024" version="1.1" width="1024" xmlns="http://www.w3.org/2000/svg" xmlns:ev="http://www.w3.org/2001/xml-events" xmlns:xlink="http://www.w3.org/1999/xlink"><defs /><path d="M 640,173 L 639,174 L 636,174 L 635,175 L 633,175 L 632,176 L 631,176 L 630,177 L 628,177 L 627,178 L 626,178 L 625,179 L 624,179 L 623,180 L 621,180 L 620,181 L 619,181 L 618,182 L 617,182 L 615,184 L 614,184 L 613,185 L 612,185 L 611,186 L 610,186 L 609,187 L 608,187 L 607,188 L 606,188 L 604,190 L 603,190 L 601,192 L 600,192 L 599,193 L 598,193 L 596,195 L 595,195 L 593,197 L 592,197 L 588,201 L 587,201 L 584,204 L 583,204 L 578,209 L 577,209 L 565,221 L 564,221 L 564,222 L 555,231 L 555,232 L 550,237 L 550,238 L 546,242 L 546,243 L 543,246 L 543,247 L 541,249 L 541,250 L 539,252 L 539,253 L 537,255 L 537,256 L 535,258 L 535,259 L 534,260 L 534,261 L 533,262 L 533,263 L 531,265 L 531,266 L 530,267 L 530,268 L 529,269 L 529,270 L 528,271 L 528,272 L 527,273 L 527,274 L 526,275 L 526,276 L 525,277 L 525,278 L 524,279 L 524,280 L 523,281 L 523,282 L 522,283 L 522,285 L 521,286 L 521,287 L 520,288 L 520,289 L 519,290 L 519,292 L 518,293 L 518,295 L 517,296 L 517,297 L 516,298 L 516,300 L 515,301 L 515,304 L 514,305 L 514,307 L 513,308 L 513,310 L 512,311 L 512,314 L 511,315 L 511,318 L 510,319 L 510,322 L 509,323 L 509,328 L 508,329 L 508,334 L 507,335 L 507,342 L 506,343 L 506,355 L 505,356 L 505,446 L 504,447 L 503,446 L 503,445 L 502,444 L 502,442 L 501,441 L 501,439 L 500,438 L 500,437 L 499,436 L 499,435 L 498,434 L 498,433 L 497,432 L 497,430 L 495,428 L 495,427 L 494,426 L 494,425 L 493,424 L 493,423 L 492,422 L 492,421 L 490,419 L 490,418 L 489,417 L 489,416 L 487,414 L 487,413 L 484,410 L 484,409 L 479,404 L 479,403 L 469,393 L 468,393 L 464,389 L 463,389 L 460,386 L 459,386 L 457,384 L 456,384 L 455,383 L 454,383 L 452,381 L 451,381 L 450,380 L 449,380 L 448,379 L 447,379 L 446,378 L 445,378 L 444,377 L 443,377 L 442,376 L 441,376 L 440,375 L 438,375 L 437,374 L 436,374 L 435,373 L 433,373 L 432,372 L 430,372 L 429,371 L 427,371 L 426,370 L 422,370 L 421,369 L 418,369 L 417,368 L 413,368 L 412,367 L 406,367 L 405,366 L 377,366 L 376,367 L 369,367 L 368,368 L 364,368 L 363,369 L 359,369 L 358,370 L 355,370 L 354,371 L 351,371 L 350,372 L 348,372 L 347,373 L 345,373 L 344,374 L 342,374 L 341,375 L 339,375 L 338,376 L 337,376 L 336,377 L 334,377 L 333,378 L 332,378 L 331,379 L 329,379 L 328,380 L 327,380 L 326,381 L 325,381 L 324,382 L 323,382 L 322,383 L 321,383 L 320,384 L 319,384 L 317,386 L 316,386 L 315,387 L 314,387 L 312,389 L 311,389 L 310,390 L 309,390 L 307,392 L 306,392 L 303,395 L 302,395 L 299,398 L 298,398 L 295,401 L 294,401 L 286,409 L 285,409 L 280,414 L 280,415 L 273,422 L 273,423 L 270,426 L 270,427 L 267,430 L 267,431 L 265,433 L 265,434 L 263,436 L 263,437 L 261,439 L 261,440 L 260,441 L 260,442 L 259,443 L 259,444 L 257,446 L 257,447 L 256,448 L 256,449 L 255,450 L 255,451 L 254,452 L 254,453 L 253,454 L 253,456 L 252,457 L 252,458 L 251,459 L 251,461 L 250,462 L 250,463 L 249,464 L 249,466 L 248,467 L 248,469 L 247,470 L 247,472 L 246,473 L 246,476 L 245,477 L 245,479 L 244,480 L 244,484 L 243,485 L 243,489 L 242,490 L 242,496 L 241,497 L 241,504 L 240,505 L 240,533 L 241,534 L 241,541 L 242,542 L 242,546 L 243,547 L 243,551 L 244,552 L 244,555 L 245,556 L 245,558 L 246,559 L 246,561 L 247,562 L 247,564 L 248,565 L 248,567 L 249,568 L 249,570 L 250,571 L 250,572 L 251,573 L 251,574 L 252,575 L 252,577 L 253,578 L 253,579 L 254,580 L 254,581 L 255,582 L 255,583 L 256,584 L 256,585 L 257,586 L 257,587 L 259,589 L 259,590 L 260,591 L 260,592 L 262,594 L 262,595 L 264,597 L 264,598 L 267,601 L 267,602 L 271,606 L 271,607 L 277,613 L 277,614 L 283,620 L 284,620 L 291,627 L 292,627 L 296,631 L 297,631 L 300,634 L 301,634 L 303,636 L 304,636 L 306,638 L 307,638 L 308,639 L 309,639 L 311,641 L 312,641 L 313,642 L 314,642 L 316,644 L 317,644 L 318,645 L 319,645 L 320,646 L 321,646 L 322,647 L 323,647 L 324,648 L 325,648 L 326,649 L 328,649 L 329,650 L 330,650 L 331,651 L 332,651 L 333,652 L 335,652 L 336,653 L 338,653 L 339,654 L 340,654 L 341,655 L 343,655 L 344,656 L 346,656 L 347,657 L 350,657 L 351,658 L 353,658 L 354,659 L 357,659 L 358,660 L 361,660 L 362,661 L 365,661 L 366,662 L 370,662 L 371,663 L 377,663 L 378,664 L 384,664 L 385,665 L 393,665 L 394,666 L 431,666 L 432,665 L 442,665 L 443,664 L 450,664 L 451,663 L 457,663 L 458,662 L 462,662 L 463,661 L 467,661 L 468,660 L 472,660 L 473,659 L 476,659 L 477,658 L 479,658 L 480,659 L 480,660 L 479,661 L 479,663 L 478,664 L 478,665 L 477,666 L 477,668 L 476,669 L 476,671 L 475,672 L 475,673 L 474,674 L 474,676 L 473,677 L 473,680 L 472,681 L 472,683 L 471,684 L 471,686 L 470,687 L 470,689 L 469,690 L 469,693 L 468,694 L 468,697 L 467,698 L 467,701 L 466,702 L 466,704 L 465,705 L 465,709 L 464,710 L 464,713 L 463,714 L 463,718 L 462,719 L 462,722 L 461,723 L 461,728 L 460,729 L 460,733 L 459,734 L 459,739 L 458,740 L 458,745 L 457,746 L 457,752 L 456,753 L 456,759 L 455,760 L 455,769 L 454,770 L 454,783 L 453,784 L 453,819 L 454,820 L 454,828 L 455,829 L 455,835 L 456,836 L 456,839 L 457,840 L 457,842 L 458,843 L 458,844 L 459,845 L 459,846 L 460,847 L 460,848 L 461,849 L 462,849 L 463,850 L 466,850 L 467,849 L 468,849 L 474,843 L 474,842 L 478,838 L 478,837 L 485,830 L 485,829 L 508,806 L 509,806 L 516,799 L 517,799 L 522,794 L 523,794 L 527,790 L 528,790 L 532,786 L 533,786 L 535,784 L 536,784 L 539,781 L 540,781 L 543,778 L 544,778 L 546,776 L 547,776 L 549,774 L 550,774 L 553,771 L 554,771 L 556,769 L 557,769 L 559,767 L 560,767 L 562,765 L 563,765 L 564,764 L 565,764 L 567,762 L 568,762 L 570,760 L 571,760 L 572,759 L 573,759 L 575,757 L 576,757 L 577,756 L 578,756 L 579,755 L 580,755 L 582,753 L 583,753 L 584,752 L 585,752 L 587,750 L 588,750 L 589,749 L 590,749 L 592,747 L 593,747 L 594,746 L 595,746 L 597,744 L 598,744 L 599,743 L 600,743 L 602,741 L 603,741 L 604,740 L 605,740 L 607,738 L 608,738 L 610,736 L 611,736 L 612,735 L 613,735 L 615,733 L 616,733 L 618,731 L 619,731 L 621,729 L 622,729 L 624,727 L 625,727 L 626,726 L 627,726 L 629,724 L 630,724 L 632,722 L 633,722 L 635,720 L 636,720 L 638,718 L 639,718 L 641,716 L 642,716 L 644,714 L 645,714 L 648,711 L 649,711 L 651,709 L 652,709 L 655,706 L 656,706 L 659,703 L 660,703 L 664,699 L 665,699 L 668,696 L 669,696 L 674,691 L 675,691 L 682,684 L 683,684 L 711,656 L 711,655 L 717,649 L 717,648 L 721,644 L 721,643 L 724,640 L 724,639 L 727,636 L 727,635 L 729,633 L 729,632 L 732,629 L 732,628 L 733,627 L 733,626 L 735,624 L 735,623 L 737,621 L 737,620 L 738,619 L 738,618 L 740,616 L 740,615 L 741,614 L 741,613 L 743,611 L 743,610 L 744,609 L 744,608 L 745,607 L 745,606 L 746,605 L 746,604 L 747,603 L 747,602 L 748,601 L 748,600 L 749,599 L 749,598 L 750,597 L 750,596 L 751,595 L 751,594 L 752,593 L 752,591 L 753,590 L 753,589 L 754,588 L 754,587 L 755,586 L 755,584 L 756,583 L 756,581 L 757,580 L 757,579 L 758,578 L 758,576 L 759,575 L 759,573 L 760,572 L 760,570 L 761,569 L 761,567 L 762,566 L 762,563 L 763,562 L 763,559 L 764,558 L 764,555 L 765,554 L 765,551 L 766,550 L 766,545 L 767,544 L 767,540 L 768,539 L 768,531 L 769,530 L 769,506 L 768,505 L 768,498 L 767,497 L 767,493 L 766,492 L 766,489 L 765,488 L 765,485 L 764,484 L 764,482 L 763,481 L 763,480 L 762,479 L 762,478 L 761,477 L 761,476 L 760,475 L 760,474 L 757,471 L 757,470 L 753,466 L 752,466 L 750,464 L 749,464 L 748,463 L 747,463 L 746,462 L 745,462 L 744,461 L 743,461 L 742,460 L 740,460 L 739,459 L 736,459 L 735,458 L 731,458 L 730,457 L 712,457 L 711,458 L 706,458 L 705,459 L 701,459 L 700,460 L 698,460 L 697,461 L 695,461 L 694,462 L 691,462 L 690,463 L 688,463 L 687,464 L 686,464 L 685,465 L 684,465 L 683,466 L 681,466 L 680,467 L 679,467 L 678,468 L 677,468 L 676,469 L 675,469 L 674,470 L 673,470 L 672,471 L 671,471 L 670,472 L 669,472 L 668,473 L 667,473 L 666,474 L 665,474 L 663,476 L 662,476 L 661,477 L 660,477 L 658,479 L 657,479 L 656,480 L 655,480 L 653,482 L 652,482 L 650,484 L 649,484 L 647,486 L 646,486 L 643,489 L 642,489 L 640,491 L 639,491 L 636,494 L 635,494 L 632,497 L 631,497 L 628,500 L 627,500 L 623,504 L 622,504 L 618,508 L 617,508 L 613,512 L 612,512 L 608,516 L 607,516 L 603,520 L 602,520 L 597,525 L 596,525 L 592,529 L 591,529 L 587,533 L 586,533 L 582,537 L 581,537 L 577,541 L 576,541 L 572,545 L 571,545 L 567,549 L 566,549 L 562,553 L 561,553 L 558,556 L 557,556 L 553,560 L 552,560 L 549,563 L 548,563 L 545,566 L 544,566 L 542,568 L 541,568 L 538,571 L 537,571 L 535,573 L 534,573 L 531,576 L 530,576 L 528,578 L 527,578 L 525,580 L 524,580 L 523,581 L 522,581 L 520,583 L 519,583 L 517,585 L 516,585 L 515,586 L 514,586 L 512,588 L 511,588 L 510,589 L 509,589 L 508,590 L 507,590 L 506,591 L 505,591 L 504,592 L 503,592 L 501,594 L 500,594 L 499,595 L 498,595 L 497,596 L 496,596 L 495,597 L 494,597 L 493,598 L 491,598 L 490,599 L 489,599 L 488,600 L 487,600 L 486,601 L 485,601 L 484,602 L 482,602 L 481,603 L 480,603 L 479,604 L 477,604 L 476,605 L 475,605 L 474,606 L 472,606 L 471,607 L 469,607 L 468,608 L 466,608 L 465,609 L 463,609 L 462,610 L 460,610 L 459,611 L 456,611 L 455,612 L 453,612 L 452,613 L 448,613 L 447,614 L 444,614 L 443,615 L 438,615 L 437,616 L 430,616 L 429,617 L 420,617 L 419,618 L 401,618 L 400,617 L 390,617 L 389,616 L 383,616 L 382,615 L 377,615 L 376,614 L 373,614 L 372,613 L 370,613 L 369,612 L 366,612 L 365,611 L 363,611 L 362,610 L 360,610 L 359,609 L 358,609 L 357,608 L 355,608 L 354,607 L 353,607 L 352,606 L 351,606 L 350,605 L 349,605 L 348,604 L 347,604 L 346,603 L 345,603 L 344,602 L 343,602 L 342,601 L 341,601 L 339,599 L 338,599 L 336,597 L 335,597 L 333,595 L 332,595 L 329,592 L 328,592 L 323,587 L 322,587 L 315,580 L 315,579 L 309,573 L 309,572 L 306,569 L 306,568 L 304,566 L 304,565 L 302,563 L 302,562 L 301,561 L 301,560 L 300,559 L 300,558 L 299,557 L 299,556 L 298,555 L 298,554 L 297,553 L 297,552 L 296,551 L 296,550 L 295,549 L 295,548 L 294,547 L 294,545 L 293,544 L 293,542 L 292,541 L 292,539 L 291,538 L 291,535 L 290,534 L 290,531 L 289,530 L 289,525 L 288,524 L 288,516 L 287,515 L 287,501 L 288,500 L 288,491 L 289,490 L 289,485 L 290,484 L 290,480 L 291,479 L 291,476 L 292,475 L 292,473 L 293,472 L 293,470 L 294,469 L 294,467 L 295,466 L 295,465 L 296,464 L 296,462 L 297,461 L 297,460 L 298,459 L 298,458 L 299,457 L 299,456 L 300,455 L 300,454 L 301,453 L 301,452 L 302,451 L 302,450 L 303,449 L 303,448 L 305,446 L 305,445 L 307,443 L 307,442 L 309,440 L 309,439 L 313,435 L 313,434 L 327,420 L 328,420 L 332,416 L 333,416 L 335,414 L 336,414 L 338,412 L 339,412 L 340,411 L 341,411 L 343,409 L 344,409 L 345,408 L 346,408 L 347,407 L 348,407 L 349,406 L 350,406 L 351,405 L 352,405 L 353,404 L 355,404 L 356,403 L 358,403 L 359,402 L 360,402 L 361,401 L 364,401 L 365,400 L 368,400 L 369,399 L 373,399 L 374,398 L 380,398 L 381,397 L 407,397 L 408,398 L 414,398 L 415,399 L 419,399 L 420,400 L 422,400 L 423,401 L 425,401 L 426,402 L 428,402 L 429,403 L 431,403 L 432,404 L 433,404 L 434,405 L 435,405 L 436,406 L 437,406 L 438,407 L 439,407 L 441,409 L 442,409 L 444,411 L 445,411 L 447,413 L 448,413 L 460,425 L 460,426 L 463,429 L 463,430 L 465,432 L 465,433 L 467,435 L 467,436 L 468,437 L 468,438 L 469,439 L 469,440 L 470,441 L 470,442 L 471,443 L 471,444 L 472,445 L 472,447 L 473,448 L 473,449 L 474,450 L 474,452 L 475,453 L 475,455 L 476,456 L 476,458 L 477,459 L 477,462 L 478,463 L 478,467 L 479,468 L 479,472 L 480,473 L 480,479 L 481,480 L 481,492 L 482,493 L 482,507 L 481,508 L 481,526 L 480,527 L 480,542 L 482,540 L 483,540 L 485,538 L 486,538 L 488,536 L 489,536 L 491,534 L 492,534 L 494,532 L 495,532 L 497,530 L 498,530 L 500,528 L 501,528 L 503,526 L 504,526 L 506,524 L 507,524 L 509,522 L 510,522 L 512,520 L 513,520 L 515,518 L 516,518 L 518,516 L 519,516 L 521,514 L 522,514 L 525,511 L 526,511 L 528,509 L 529,509 L 531,507 L 532,507 L 534,505 L 535,505 L 537,503 L 538,503 L 541,500 L 542,500 L 544,498 L 545,498 L 548,495 L 549,495 L 551,493 L 552,493 L 554,491 L 555,491 L 558,488 L 559,488 L 562,485 L 563,485 L 565,483 L 566,483 L 569,480 L 570,480 L 573,477 L 574,477 L 576,475 L 577,475 L 581,471 L 582,471 L 585,468 L 586,468 L 589,465 L 590,465 L 593,462 L 594,462 L 598,458 L 599,458 L 604,453 L 605,453 L 610,448 L 611,448 L 617,442 L 618,442 L 631,429 L 632,429 L 638,423 L 638,422 L 649,411 L 649,410 L 655,404 L 655,403 L 659,399 L 659,398 L 662,395 L 662,394 L 665,391 L 665,390 L 667,388 L 667,387 L 669,385 L 669,384 L 671,382 L 671,381 L 672,380 L 672,379 L 674,377 L 674,376 L 675,375 L 675,374 L 677,372 L 677,371 L 678,370 L 678,369 L 679,368 L 679,367 L 680,366 L 680,365 L 681,364 L 681,363 L 682,362 L 682,361 L 683,360 L 683,359 L 684,358 L 684,356 L 685,355 L 685,354 L 686,353 L 686,351 L 687,350 L 687,349 L 688,348 L 688,346 L 689,345 L 689,343 L 690,342 L 690,340 L 691,339 L 691,336 L 692,335 L 692,333 L 693,332 L 693,329 L 694,328 L 694,324 L 695,323 L 695,319 L 696,318 L 696,311 L 697,310 L 697,300 L 698,299 L 698,279 L 697,278 L 697,268 L 696,267 L 696,261 L 695,260 L 695,256 L 694,255 L 694,251 L 693,250 L 693,247 L 692,246 L 692,243 L 691,242 L 691,239 L 690,238 L 690,236 L 689,235 L 689,233 L 688,232 L 688,230 L 687,229 L 687,227 L 686,226 L 686,225 L 685,224 L 685,222 L 684,221 L 684,220 L 683,219 L 683,218 L 682,217 L 682,215 L 681,214 L 681,213 L 680,212 L 680,211 L 679,210 L 679,209 L 678,208 L 678,207 L 677,206 L 677,205 L 676,204 L 676,203 L 675,202 L 675,201 L 674,200 L 674,199 L 673,198 L 673,197 L 672,196 L 672,195 L 671,194 L 671,193 L 670,192 L 670,191 L 669,190 L 669,189 L 668,188 L 668,187 L 666,185 L 666,184 L 664,182 L 664,181 L 660,177 L 659,177 L 657,175 L 656,175 L 655,174 L 653,174 L 652,173 Z" fill="#F4BFC3" stroke="none" /></svg>